<?xml version="1.0" encoding="UTF-8" standalone="no"?>
<!-- Generator: Adobe Illustrator 25.4.1, SVG Export Plug-In . SVG Version: 6.00 Build 0)  -->

<svg
   version="1.0"
   id="katman_1"
   x="0px"
   y="0px"
   viewBox="0 0 514 514"
   xml:space="preserve"
   sodipodi:docname="GitLab-2022-New-Logomark.svg"
   width="514"
   height="514"
   inkscape:version="1.2.2 (b0a8486541, 2022-12-01)"
   xmlns:inkscape="http://www.inkscape.org/namespaces/inkscape"
   xmlns:sodipodi="http://sodipodi.sourceforge.net/DTD/sodipodi-0.dtd"
   xmlns="http://www.w3.org/2000/svg"
   xmlns:svg="http://www.w3.org/2000/svg"><defs
   id="defs16" /><sodipodi:namedview
   id="namedview14"
   pagecolor="#ffffff"
   bordercolor="#666666"
   borderopacity="1.0"
   inkscape:showpageshadow="2"
   inkscape:pageopacity="0.0"
   inkscape:pagecheckerboard="0"
   inkscape:deskcolor="#d1d1d1"
   showgrid="false"
   inkscape:zoom="0.92875"
   inkscape:cx="239.56931"
   inkscape:cy="209.42127"
   inkscape:window-width="1920"
   inkscape:window-height="1040"
   inkscape:window-x="1920"
   inkscape:window-y="0"
   inkscape:window-maximized="1"
   inkscape:current-layer="katman_1" />
<style
   type="text/css"
   id="style2">
	.st0{fill:#E24329;}
	.st1{fill:#FC6D26;}
	.st2{fill:#FCA326;}
</style>
<g
   id="LOGO"
   transform="matrix(1.6888626,0,0,1.6888626,-174.60646,-83.395965)">
	<path
   class="st0"
   d="m 397.5,170.8 -0.4,-1 -39.6,-103.3 c -0.8,-2 -2.2,-3.7 -4.1,-4.9 -3.8,-2.3 -8.6,-2.1 -12.1,0.7 -1.7,1.4 -2.9,3.2 -3.5,5.3 l -26.7,81.7 H 203 L 176.3,67.6 c -0.6,-2.1 -1.8,-4 -3.5,-5.3 -3.5,-2.7 -8.3,-3 -12.1,-0.7 -1.8,1.2 -3.3,2.9 -4.1,4.9 l -39.6,103.2 -0.4,1 c -11.7,30.6 -1.8,65.2 24.4,84.9 l 0.1,0.1 0.4,0.3 60.3,45.1 29.8,22.6 18.2,13.7 c 4.4,3.3 10.4,3.3 14.8,0 l 18.2,-13.7 29.8,-22.6 60.6,-45.4 0.2,-0.1 c 25.8,-19.7 35.8,-54.2 24.1,-84.8 z"
   id="path4" />
	<path
   class="st1"
   d="m 397.5,170.8 -0.4,-1 c -19.3,4 -37.4,12.1 -53.2,23.9 L 257,259.4 c 29.6,22.4 55.3,41.8 55.3,41.8 l 60.6,-45.4 0.2,-0.1 c 26.1,-19.7 36.1,-54.3 24.4,-84.9 z"
   id="path6" />
	<path
   class="st2"
   d="m 201.7,301.2 29.8,22.6 18.2,13.7 c 4.4,3.3 10.4,3.3 14.8,0 l 18.2,-13.7 29.8,-22.6 c 0,0 -25.8,-19.5 -55.4,-41.8 -29.7,22.3 -55.4,41.8 -55.4,41.8 z"
   id="path8" />
	<path
   class="st1"
   d="m 170.1,193.7 c -15.7,-11.8 -33.9,-20 -53.2,-24 l -0.4,1 c -11.7,30.6 -1.8,65.2 24.4,84.9 l 0.1,0.1 0.4,0.3 60.3,45.1 c 0,0 25.7,-19.4 55.3,-41.8 z"
   id="path10" />
</g>
</svg>
